# xmcd CD database file generated by Grip 3.2.0
# 
# Track frame offsets:
#       150
#       15029
#       27852
#       45808
#       63860
#       83948
#       111034
#       136014
#       166714
#       180515
#       196339
#       216637
#       242253
#       259532
#       284878
# 
# Disc length: 4280 seconds
# 
# Revision: 1
# Processed by: cddbd v1.5.2PL0 Copyright (c) Steve Scherf et al.
# Submitted via: Grip 3.2.0
# 
DISCID=b810b60f
DTITLE=Billie Holiday - Day In, Day Out
DYEAR=2003
DGENRE=Jazz
TTITLE0=Lover Man (Oh, Where Can You Be?)
TTITLE1=Them There Eyes
TTITLE2=God Bless The Child
TTITLE3=Come's Love
TTITLE4=Speak Low
TTITLE5=I Didn't Know What Time It Was
TTITLE6=Just One Of Those Things
TTITLE7=Day In, Day Out
TTITLE8=Strange Fruit
TTITLE9=Good Morning Heartache
TTITLE10=Stars Fell On Alabama
TTITLE11=One For My Baby (And One More For The Road)
TTITLE12=Moonlight In Vermont
TTITLE13=Gee Baby, Ain't I Good To You?
TTITLE14=Fine And Mellow
EXTD=YEAR: 2003
EXTT0=
EXTT1=
EXTT2=
EXTT3=
EXTT4=
EXTT5=
EXTT6=
EXTT7=
EXTT8=
EXTT9=
EXTT10=
EXTT11=
EXTT12=
EXTT13=
EXTT14=
PLAYORDER=
